# xmcd
#
# Track frame offsets:
#	150
#	17788
#	31278
#	49938
#	64393
#	89690
#	108580
#	123395
#	135310
#	162935
#	171970
#	189955
#	206463
#	218910
#	234665
#	253300
#
# Disc length: 3741 seconds
#
# Revision: 1
# Processed by: cddbd v1.5.1PL0 Copyright (c) Steve Scherf et al.
# Submitted via: audiograbber 1.83.01
#
DISCID=ea0e9b10
DTITLE=Cellar Rats - Second Stroke
DYEAR=1900
DGENRE=
TTITLE0=Everybody Needs Somebody To Love
TTITLE1=Footloose
TTITLE2=Beast Of Burden
TTITLE3=Bad Bad Leroy Brown
TTITLE4=I Coannot Hear What You Say
TTITLE5=Whatever You Want
TTITLE6=Going Out
TTITLE7=Venus
TTITLE8=Davys On The Road Again
TTITLE9=Travvelling Band
TTITLE10=Hold The Line
TTITLE11=Harry
TTITLE12=I Feel Good
TTITLE13=Highway To Hell
TTITLE14=Jumping Jack Flash
TTITLE15=Cellar Rats Medley
EXTD=
EXTT0=
EXTT1=
EXTT2=
EXTT3=
EXTT4=
EXTT5=
EXTT6=
EXTT7=
EXTT8=
EXTT9=
EXTT10=
EXTT11=
EXTT12=
EXTT13=
EXTT14=
EXTT15=
PLAYORDER=
